<svg xmlns="http://www.w3.org/2000/svg" viewBox="0 0 291.06 159.74"><defs><style>.cls-1{fill:#55067b;}.cls-2{fill:#1ed66e;}.cls-3{fill:#027458;}</style></defs><g id="Camada_2" data-name="Camada 2"><g id="Camada_1-2" data-name="Camada 1"><path class="cls-1" d="M120.92,26.52c70.69-49.64,116.84-23.84,147,30-20.3-3.24-41.5,3.5-66.5,3.5C179.33,60,156.42,42,120.92,26.52Z"/><path class="cls-2" d="M21.44,87.1C3,83.31-6,62.08,4.37,46.41c12-18.15,39.87-32.69,85.55-16.89,16.5,5.7,45.74,23.21,84.16,38.85a80.89,80.89,0,0,0,30.29,6c21.53,0,38.95-3.88,50.55-2.85,19,1.69,25.62,7.27,28,9.77a24.48,24.48,0,0,1,2.83,3.58c7.69,11.89,7,23.1-1.84,33.65-8.53,11.25-25.25,15.14-56.83,5.66-1.45-.43-2.88-1-4.28-1.51C187.26,108.22,157,91.35,133.62,71.28A25.92,25.92,0,0,0,114,65a26.82,26.82,0,0,0-10.76,3.64C87.12,78.27,67.88,96.64,21.44,87.1Z"/><path class="cls-3" d="M133.61,92.31c12,8.94,23.4,21.57,39.81,28.71-20.86,22.31-39.65,31-61.41,36.3-31.39,7.66-72.06-3-90.09-29.8-4.65-6.92-8.39-16.32-12-24,40,20,70,2,94.61-14.12C113.32,83.64,125.17,86,133.61,92.31Z"/></g></g></svg>